HIERARCHY
ROOT Hips
{
	OFFSET 0.00 0.00 0.00
	CHANNELS 6 Xposition Yposition Zposition Xrotation Yrotation Zrotation
	JOINT Spine
	{
		OFFSET 0.00000 6.11665 0.00000
		CHANNELS 3 Xrotation Yrotation Zrotation
		JOINT Head
		{
			OFFSET 0.00000 15.22556 0.00000
			CHANNELS 3 Xrotation Yrotation Zrotation
			End Site
			{
				OFFSET 0.00000 4.52755 0.00000
			}
		}
		JOINT LeftShoulder
		{
			OFFSET 0.00000 8.97765 0.00000
			CHANNELS 3 Xrotation Yrotation Zrotation
			JOINT LeftArm
			{
				OFFSET 7.11013 0.00000 0.00000
				CHANNELS 3 Xrotation Yrotation Zrotation
				JOINT LeftForeArm
				{
					OFFSET 10.39834 0.00000 0.00000
					CHANNELS 3 Yrotation Zrotation Xrotation
					JOINT LeftHand
					{
						OFFSET 8.88900 0.00000 0.00000
						CHANNELS 3 Xrotation Yrotation Zrotation
						JOINT LeftHandThumb1
						{
							OFFSET 0.00000 0.00000 0.00000
							CHANNELS 3 Xrotation Zrotation Yrotation
							End Site
							{
								OFFSET 0.00000 0.00000 3.93700
							}
						}
						End Site
						{
							OFFSET 3.93700 0.00000 0.00000
						}
					}
				}
			}
		}
		JOINT RightShoulder
		{
			OFFSET 0.00000 8.97765 0.00000
			CHANNELS 3 Xrotation Yrotation Zrotation
			JOINT RightArm
			{
				OFFSET -7.11013 0.00000 0.00000
				CHANNELS 3 Xrotation Yrotation Zrotation
				JOINT RightForeArm
				{
					OFFSET -10.39834 0.00000 0.00000
					CHANNELS 3 Yrotation Zrotation Xrotation
					JOINT RightHand
					{
						OFFSET -8.88900 0.00000 0.00000
						CHANNELS 3 Xrotation Yrotation Zrotation
						JOINT RightHandThumb1
						{
							OFFSET 0.00000 0.00000 0.00000
							CHANNELS 3 Xrotation Zrotation Yrotation
							End Site
							{
								OFFSET 0.00000 0.00000 3.93700
							}
						}
						End Site
						{
							OFFSET -3.93700 0.00000 0.00000
						}
					}
				}
			}
		}
	}
	JOINT LeftUpLeg
	{
		OFFSET 4.71176 0.00000 0.00000
		CHANNELS 3 Xrotation Yrotation Zrotation
		JOINT LeftLeg
		{
			OFFSET 0.00000 -15.51045 0.00000
			CHANNELS 3 Xrotation Yrotation Zrotation
			JOINT LeftFoot
			{
				OFFSET 0.00000 -14.85806 0.00000
				CHANNELS 3 Xrotation Yrotation Zrotation
				JOINT LeftToeBase
				{
					OFFSET 0.00000 -1.32744 4.95409
					CHANNELS 3 Xrotation Yrotation Zrotation
					End Site
					{
						OFFSET 0.00000 0.00000 2.95275
					}
				}
			}
		}
	}
	JOINT RightUpLeg
	{
		OFFSET -4.71176 0.00000 0.00000
		CHANNELS 3 Xrotation Yrotation Zrotation
		JOINT RightLeg
		{
			OFFSET 0.00000 -15.51045 0.00000
			CHANNELS 3 Xrotation Yrotation Zrotation
			JOINT RightFoot
			{
				OFFSET 0.00000 -14.85806 0.00000
				CHANNELS 3 Xrotation Yrotation Zrotation
				JOINT RightToeBase
				{
					OFFSET 0.00000 -1.32744 4.95409
					CHANNELS 3 Xrotation Yrotation Zrotation
					End Site
					{
						OFFSET 0.00000 0.00000 2.95275
					}
				}
			}
		}
	}
}
MOTION
Frames:	9
Frame Time: 0.008333
-4.1025 32.2960 4.1578 -1.0014 2.7640 -0.4808 4.5446 -6.4081 1.4073 -14.7934 1.6985 -3.9388 2.0625 29.4229 41.4385 -24.1818 4.2711 -43.7730 -6.1015 0.0000 15.9887 -3.3527 -15.9856 -12.0089 32.8623 0.0000 24.3270 -14.9010 -8.6264 -42.8628 -18.4976 -0.2114 40.7387 -8.5123 -0.0000 12.8547 -1.0453 5.3468 11.0791 33.1476 -0.0000 -26.2537 5.8797 3.8552 -5.3157 0.0602 -0.0000 -0.0000 -8.9102 20.2016 -6.5904 10.9941 -0.0000 -0.0000 7.0544 2.5687 2.1679 1.3506 -0.0000 -0.0000 -12.7909 -26.8272 10.1971 16.6123 -0.0000 -0.0000
-4.1017 32.2961 4.1577 -1.0064 2.7530 -0.4832 4.5548 -6.4044 1.4075 -14.7996 1.6874 -3.9390 2.0675 29.4244 41.4301 -24.1804 4.2468 -43.7748 -6.0798 0.0000 15.9631 -3.3557 -16.0030 -12.0071 32.8623 0.0000 24.3270 -14.9156 -8.6024 -42.8627 -18.4651 -0.1948 40.7361 -8.5073 -0.0000 12.8536 -1.0358 5.3015 11.0720 33.1476 -0.0000 -26.2537 5.8914 3.8787 -5.3158 0.0451 -0.0000 -0.0000 -8.8694 20.1714 -6.5076 10.7863 -0.0000 -0.0000 7.0672 2.5538 2.1675 1.3324 -0.0000 -0.0000 -12.7814 -26.8147 10.2299 16.6306 -0.0000 -0.0000
-4.1012 32.2963 4.1572 -1.0070 2.7350 -0.4845 4.5558 -6.3907 1.4000 -14.7939 1.6839 -3.9286 2.0820 29.4283 41.4293 -24.2021 4.2443 -43.7790 -6.0703 0.0000 15.9623 -3.3526 -16.0216 -11.9832 32.8623 0.0000 24.3270 -14.9101 -8.5935 -42.8615 -18.4467 -0.1819 40.7409 -8.5063 -0.0000 12.8788 -1.0390 5.3264 11.0549 33.1476 -0.0000 -26.2537 5.8950 3.8859 -5.3157 0.0465 -0.0000 -0.0000 -8.8995 20.1869 -6.5955 11.0067 -0.0000 -0.0000 7.0607 2.5692 2.1621 1.3311 -0.0000 -0.0000 -12.7908 -26.7923 10.1690 16.7060 -0.0000 -0.0000
-4.1000 32.2963 4.1567 -1.0062 2.7271 -0.4897 4.5604 -6.3942 1.4059 -14.8023 1.6740 -3.9303 2.0923 29.4418 41.4113 -24.1900 4.1896 -43.7747 -6.0408 0.0000 15.8806 -3.3613 -16.0299 -12.0075 32.8623 0.0000 24.3270 -14.8987 -8.5834 -42.8565 -18.4447 -0.1382 40.7360 -8.5538 0.0000 12.8762 -1.0351 5.3128 11.0416 33.1476 -0.0000 -26.2537 5.8963 3.9094 -5.3153 0.0403 -0.0000 -0.0000 -8.8747 20.1730 -6.5197 10.8853 -0.0000 -0.0000 7.0610 2.5375 2.1621 1.3275 -0.0000 -0.0000 -12.7741 -26.7547 10.1894 16.7272 -0.0000 -0.0000
-4.0995 32.2965 4.1558 -0.9995 2.7143 -0.4930 4.5554 -6.3895 1.4075 -14.8038 1.6662 -3.9316 2.0881 29.4320 41.4109 -24.1873 4.1934 -43.7826 -6.0359 0.0000 15.8553 -3.3465 -16.0141 -11.9674 32.8623 0.0000 24.3270 -14.8932 -8.5812 -42.8560 -18.4424 -0.1196 40.7318 -8.5582 0.0000 12.8433 -1.0417 5.3301 11.0746 33.1476 -0.0000 -26.2537 5.8893 3.8873 -5.3150 0.0409 -0.0000 -0.0000 -8.9046 20.2126 -6.5590 10.9864 -0.0000 -0.0000 7.0445 2.5318 2.1657 1.3507 -0.0000 -0.0000 -12.7687 -26.7505 10.2484 16.6151 -0.0000 -0.0000
-4.0983 32.2967 4.1559 -0.9986 2.7015 -0.4934 4.5532 -6.3807 1.4069 -14.8013 1.6558 -3.9354 2.0811 29.4067 41.4165 -24.1886 4.2386 -43.7865 -6.0523 0.0000 15.8788 -3.3516 -16.0267 -11.9760 32.8623 0.0000 24.3270 -14.9028 -8.5674 -42.8597 -18.4199 -0.0994 40.7308 -8.5636 0.0000 12.8369 -1.0407 5.3331 11.0583 33.1476 -0.0000 -26.2537 5.8969 3.9127 -5.3201 0.0242 -0.0000 -0.0000 -8.8671 20.2009 -6.5261 10.8752 -0.0000 -0.0000 7.0559 2.5482 2.1606 1.3127 -0.0000 -0.0000 -12.7592 -26.7449 10.2066 16.7489 -0.0000 -0.0000
-4.0970 32.2968 4.1552 -0.9963 2.6917 -0.4954 4.5519 -6.3779 1.4046 -14.8054 1.6601 -3.9276 2.0882 29.3966 41.4044 -24.1931 4.2418 -43.7799 -6.0822 0.0000 15.8471 -3.3151 -15.9126 -11.9296 32.8623 0.0000 24.3270 -14.8981 -8.5617 -42.8510 -18.4260 -0.0792 40.7202 -8.5914 0.0000 12.8133 -1.0525 5.3929 11.0605 33.1476 -0.0000 -26.2537 5.8955 3.8976 -5.3194 0.0189 -0.0000 -0.0000 -8.8734 20.2197 -6.5133 10.8977 -0.0000 -0.0000 7.0536 2.5550 2.1624 1.3117 -0.0000 -0.0000 -12.7402 -26.7638 10.2341 16.6690 -0.0000 -0.0000
-4.0959 32.2966 4.1545 -0.9937 2.6784 -0.4965 4.5511 -6.3780 1.4050 -14.8037 1.6557 -3.9237 2.0784 29.3980 41.4168 -24.2096 4.2647 -43.7947 -6.0426 -0.0000 15.8779 -3.3226 -15.9728 -11.9130 32.8623 0.0000 24.3270 -14.8809 -8.5568 -42.8613 -18.4638 -0.1027 40.7280 -8.5842 0.0000 12.8339 -1.0531 5.3927 11.0673 33.1476 -0.0000 -26.2537 5.8942 3.8996 -5.3218 0.0167 -0.0000 -0.0000 -8.8736 20.2241 -6.5180 10.8688 -0.0000 -0.0000 7.0478 2.5577 2.1580 1.3068 -0.0000 -0.0000 -12.7551 -26.7429 10.1816 16.6950 -0.0000 -0.0000
-4.0953 32.2963 4.1539 -0.9926 2.6682 -0.4985 4.5543 -6.3780 1.4080 -14.8146 1.6410 -3.9305 2.0366 29.3438 41.4272 -24.1491 4.2935 -43.7833 -6.0467 0.0000 15.9371 -3.3309 -16.0188 -11.9095 32.8623 0.0000 24.3270 -14.8692 -8.5546 -42.8690 -18.4878 -0.1174 40.7304 -8.5728 -0.0000 12.8308 -1.0532 5.3962 11.0609 33.1476 -0.0000 -26.2537 5.8910 3.8933 -5.3209 0.0240 -0.0000 -0.0000 -8.8982 20.2452 -6.5858 10.9119 -0.0000 -0.0000 7.0412 2.5476 2.1602 1.3189 -0.0000 -0.0000 -12.7373 -26.7389 10.2344 16.6637 -0.0000 -0.0000
